<svg version="1.1" baseProfile="basic" id="Layer_1"
	 xmlns="http://www.w3.org/2000/svg"
	 xmlns:xlink="http://www.w3.org/1999/xlink"
	 x="0px" y="0px" viewBox="0 0 1080 1080"
	 width="40" height="40"
	 xml:space="preserve">
<g>
	<g>
		<path fill="#575756" d="M504.62,185.18c145.05,0,218.31,131.86,218.31,131.86s-49.81-165.56-216.84-165.56
			c-156.77,0-212.45,124.54-212.45,124.54S359.57,185.18,504.62,185.18z"/>
		<path fill="#575756" d="M351.24,502.81c-0.2,0.01-0.36,0.17-0.36,0.37v2.13c0,0.21,0.18,0.38,0.4,0.37l25.41-1.24
			c0.2-0.01,0.36-0.17,0.36-0.37v-2.13c0-0.21-0.18-0.38-0.4-0.37L351.24,502.81z"/>
		<path fill="#575756" d="M311.27,504.84c-0.2,0.01-0.36,0.17-0.36,0.37v2.13c0,0.21,0.18,0.38,0.4,0.37l23.62-1.15
			c0.2-0.01,0.36-0.17,0.36-0.37v-2.13c0-0.21-0.18-0.38-0.4-0.37L311.27,504.84z"/>
		<path fill="#575756" d="M266.32,495.02c2.37,1.76,3.37,3.42,3.37,3.42l17.38-0.78l-4.18-6.85c-11.37,0-10.83-3.73-10.83-3.73
			s0-10.41,0-15.62s5.46-5.47,5.46-5.47c0-2.56-4.28-2.78-4.28-2.78c-0.43,0-1.31,0-3.05,0c-4.91,0-3.87,5.84-3.87,5.84V495.02z"/>
		<path fill="#575756" d="M433.26,482.64l-14.38,0.59l-1.88,6.71c0,0,28.48-1.53,30.75-1c2.28,0.53,13.56,1.41,13.56,1.41l3.09-3.44
			v-35.56l-3.73-3.35c0,0-7.92-0.88-12.92-0.88c-5,0-15.38,0.97-15.38,0.97s-4.64,1.03-4.64,5.32h9.4c0,0,4.43-0.41,4.43,4.29
			c0,4.71,0,20.65,0,20.65S441.81,482.64,433.26,482.64z"/>
		<path fill="#575756" d="M400.25,470.85c5.96,0,5.33-7.82,5.33-7.82l-110.64,5.06c0,6.96,4.9,7.02,4.9,7.02s18.82-0.85,40.18-1.78
			v8.26l-40.92,1.87c0,6.44,4.53,6.49,4.53,6.49s87.35-3.93,92.86-3.93c5.51,0,4.93-7.24,4.93-7.24l-52.72,2.41v-8.25
			C372.77,471.88,397.3,470.85,400.25,470.85z M347.2,479.72l-5.69,0.26v-5.81l5.69-0.29V479.72z"/>
		<path fill="#575756" d="M289.13,413.21c9.6-2.46,145.28-15.23,153.69-15.33c8.41-0.1,10.39-8.05,10.39-8.05s9.59-38.11,11.1-44.89
			c1.51-6.78-4.46-6.09-4.46-6.09c-92.62,0.8-146.63,20.82-149.67,21.83c-3.04,1-3.46,2.53-3.46,2.53l-20.84,45.17
			C283.17,414.26,289.13,413.21,289.13,413.21z"/>
		<path fill="#575756" d="M473.24,346.45c-0.18,0.44-0.32,0.9-0.42,1.38l-11.13,50.68l54.52,17.66v-0.64v-55.24v-0.64
			c0-3.41-2.15-6.47-5.42-7.72l-26.46-10.12c-4.45-1.7-9.37,0.47-11.08,4.61l1.63-7.59L473.24,346.45z"/>
		<polygon fill="#575756" points="498.69,437.07 517.29,442.34 517.29,435.81 498.69,429.75 		"/>
		<path fill="#575756" d="M256.58,666.76l409.16-72.02h0.75c0.13,0.01,0.26,0.01,0.39,0.01c0.91,0,1.79-0.24,2.65-0.68l57.8-13.29
			l-19.09,1.44c3.68-6.16,6.12-16.95,6.12-29.23c0-1.16-0.02-2.3-0.06-3.43l3.7,0.27c0,0,2.72-31.06-16.39-43.58l-67.31-5.9
			l100.46-2.54l-164.7-13.58l164.7,1.44l-164.7-19.19l164.7,7.05l-164.7-24.8l164.7,12.66l-164.7-30.41l164.7,18.27l-164.7-36.02
			l164.7,23.87l-164.7-41.63l164.7,29.48l-164.7-47.24l164.7,35.09l-164.7-52.85l164.7,40.7l-164.7-58.46l164.7,46.31l-164.7-64.07
			l164.7,51.92l-164.73-69.34v132.72h-6.53V316.71c0-5.9-5.21-10.53-11.28-10.02l-168.88,14.33c-6.16,0.52-10.88,5.52-10.88,11.52
			v4.61c0,0,90.55-11.58,106.92-8.14c8.19,1.72,14.86,3.57,19.48,4.98l-0.2,0.04l7.39,2.36l1.94,0.62l19.22,6.14
			c14.6,4.66,24.46,17.88,24.46,32.79v85.41l13.13,12.7v20.19l-1.31-0.11v-14.97l-4.19-8.67l-36.21-5.83c0,0-22.75-4.59-35.3,32.91
			l-29-4.2c0,0-4.37-1.12-4.37,4.23l-50.71,0.75c0,0-11.65-0.51-11.65,7.25l-91.05,4c0,0-1.61-6.17-9.16-5.72
			c-4.89,0.29-14.78,1.05-21.17,1.56c-3.34,0.27-5.92,2.97-5.92,6.23v2.15v3.35l19.65-0.83c0,0,2.16-0.12,2.16,5.41
			c0,5.53,0,10.44,0,10.44s0.21,1.49-4.13,1.58c-4.37,0.09-17.68,0.6-17.68,0.6v12.4v20.42h43.09c1.07,18.81,6.65,35.12,14.7,45.06
			l-39.68,3.09L256.58,666.76z M697.35,565.02c4.57,0,8.28-9.72,8.28-21.7c0-3.54-0.32-6.88-0.9-9.84
			c2.79,3.49,4.71,10.95,4.71,19.59c0,11.99-3.71,21.7-8.28,21.7c-3.22,0-6.02-4.82-7.39-11.86
			C694.86,564.27,696.07,565.02,697.35,565.02z M664.95,569.26c4.57,0,8.28-9.72,8.28-21.7c0-3.54-0.32-6.88-0.9-9.84
			c2.79,3.49,4.71,10.95,4.71,19.59c0,11.99-3.71,21.7-8.28,21.7c-3.22,0-6.02-4.82-7.39-11.86
			C662.47,568.5,663.68,569.26,664.95,569.26z M579.78,568.7l30.87-1.26c1.03,9.25,3.31,17.02,6.29,21.87l-43.17,3.36
			C576.86,586.91,579.06,578.44,579.78,568.7z M570.06,481.11l0,13.57l0,0V481.11z M526.65,533.12c7.3,0,13.65,6.53,16.96,16.18
			c-2.74-5.19-6.81-8.48-11.35-8.48c-8.24,0-14.92,10.82-14.92,24.16c0,13.34,6.68,24.16,14.92,24.16c3.96,0,7.55-2.49,10.23-6.56
			c-3.51,8.03-9.29,13.28-15.83,13.28c-10.7,0-19.38-14.04-19.38-31.37S515.95,533.12,526.65,533.12z M297.38,556.58
			c0,1-0.83,1.81-1.86,1.82l-25.78,0.34c-1.05,0.01-1.91-0.81-1.91-1.82v-9.21c0-0.99,0.81-1.8,1.83-1.82l25.78-0.62
			c1.06-0.03,1.93,0.8,1.93,1.82V556.58z M412.15,510.81c0,0,33.18-0.81,36.09-0.81s2.31,1.63,2.31,1.63v17.35
			c0,0-37.43,0.88-39.25,0.88c-1.82,0-1.64-1.41-1.64-1.41v-14.55c0,0,0,0,0-1.57C409.66,510.78,412.15,510.81,412.15,510.81z
			 M399.85,545.79c0-0.9,0.75-1.64,1.68-1.65l32.95-0.36c0.95-0.01,1.72,0.73,1.72,1.65v10.9c0,0.91-0.76,1.64-1.69,1.65
			l-32.95,0.16c-0.94,0-1.71-0.73-1.71-1.65V545.79z M392.5,587.69h79.54c1.35,4.56,3.08,8.76,5.14,12.5l-92.82,7.22
			C387.74,601.96,390.52,595.26,392.5,587.69z M300.52,520.43l86.28-3.56c0,0,1.66,14-12.68,14s-63.32,2.09-63.32,2.09
			S300.52,532.43,300.52,520.43z M317.28,558.77c0,0-8.12-0.7-7.81-11.49l68.39-1.34c0,0,0.95,12.63-10.4,12.32
			C356.11,557.95,317.28,558.77,317.28,558.77z"/>
		<path fill="#575756" d="M868.14,918.15l-1.76-1.32c-5.21-3.95-6.65-6.15-6.65-9.03c0-3.76,2.82-6.46,7.46-6.46
			c4.08,0,5.9,1.88,6.84,3.07c1.32,1.63,1.63,3.57,1.63,4.14c0,0.75,0.19,1.13,0.63,1.13c0.5,0,0.69-0.5,0.69-1.88
			c0-4.89,0.25-6.71,0.25-7.53c0-0.44-0.31-0.63-0.88-0.75c-1.63-0.44-4.26-1.07-8.34-1.07c-8.72,0-14.49,4.96-14.49,11.85
			c0,5.08,2.38,9.47,9.28,14.86l2.88,2.26c5.21,4.08,6.15,6.96,6.15,10.03c0,3.32-2.76,7.15-8.4,7.15c-3.89,0-7.59-1.69-8.97-6.33
			c-0.31-1.07-0.56-2.38-0.56-3.2c0-0.5-0.06-1.07-0.63-1.07c-0.5,0-0.69,0.69-0.75,1.63c-0.06,1-0.31,4.77-0.31,8.22
			c0,1.38,0.19,1.69,1.19,2.13c2.7,1.19,5.52,1.63,9.16,1.63c3.32,0,6.84-0.56,9.97-2.57c4.51-2.95,5.89-7.28,5.89-10.91
			C878.43,928.19,875.73,923.86,868.14,918.15z"/>
		<path fill="#575756" d="M803.99,935.08c-0.5,0-0.63,0.25-0.82,1.25c-0.25,1.13-1.07,2.95-2.13,4.14
			c-2.51,2.88-5.9,3.51-11.48,3.51c-8.4,0-19.75-7.4-19.75-22.33c0-6.08,1.19-12.04,5.77-16.24c2.76-2.51,6.33-3.89,11.79-3.89
			c5.77,0,10.66,1.69,12.73,3.89c1.57,1.63,2.38,3.83,2.45,5.77c0,0.88,0.13,1.38,0.63,1.38c0.56,0,0.69-0.5,0.75-1.44
			c0.12-1.25,0.06-4.7,0.19-6.77c0.12-2.2,0.31-2.95,0.31-3.45c0-0.38-0.25-0.69-0.94-0.75c-1.88-0.19-3.89-0.75-6.27-1.07
			c-2.88-0.38-5.21-0.63-9.09-0.63c-9.34,0-15.3,2.51-19.82,6.65c-6.02,5.52-7.34,12.92-7.34,17.18c0,6.08,1.63,13.11,7.78,18.5
			c5.71,4.95,12.92,6.84,21.51,6.84c4.01,0,8.78-0.44,11.29-1.44c1.07-0.44,1.32-0.75,1.63-1.82c0.63-2.13,1.38-7.59,1.38-8.34
			C804.55,935.52,804.43,935.08,803.99,935.08z"/>
		<path fill="#575756" d="M233.62,936.97c-0.5,0-0.63,0.38-0.69,0.94c-0.13,1.19-0.88,2.95-1.63,3.76
			c-1.57,1.69-4.01,1.76-7.34,1.76c-4.89,0-6.52-0.44-7.59-1.38c-1.32-1.13-1.32-5.46-1.32-13.48v-11.04c0-9.53,0-11.29,0.13-13.3
			c0.12-2.19,0.63-3.26,2.32-3.57c0.75-0.13,1.76-0.19,2.45-0.19c0.75,0,1.13-0.12,1.13-0.56c0-0.44-0.44-0.56-1.32-0.56
			c-2.45,0-7.02,0.19-8.53,0.19c-1.69,0-5.64-0.19-8.59-0.19c-0.94,0-1.38,0.13-1.38,0.56c0,0.44,0.38,0.56,1.07,0.56
			c0.82,0,1.57,0.06,2.07,0.19c2.07,0.44,2.57,1.44,2.7,3.57c0.13,2.01,0.13,3.76,0.13,13.3v11.04c0,5.77,0,10.72-0.31,13.36
			c-0.25,1.82-0.56,3.2-1.82,3.45c-0.56,0.12-1.32,0.25-2.26,0.25c-0.75,0-1,0.19-1,0.5c0,0.44,0.44,0.63,1.25,0.63
			c1.25,0,2.89-0.13,4.33-0.13c1.5-0.06,2.88-0.06,3.57-0.06c2.57,0,4.83,0.06,7.65,0.19c2.82,0.06,6.08,0.19,10.6,0.19
			c3.26,0,3.57-0.31,3.95-1.69c0.5-1.82,0.94-6.52,0.94-7.21C234.12,937.28,234.06,936.97,233.62,936.97z"/>
		<path fill="#575756" d="M553.7,918.15l-1.76-1.32c-5.21-3.95-6.65-6.15-6.65-9.03c0-3.76,2.82-6.46,7.46-6.46
			c4.08,0,5.9,1.88,6.84,3.07c1.32,1.63,1.63,3.57,1.63,4.14c0,0.75,0.19,1.13,0.63,1.13c0.5,0,0.69-0.5,0.69-1.88
			c0-4.89,0.25-6.71,0.25-7.53c0-0.44-0.31-0.63-0.88-0.75c-1.63-0.44-4.26-1.07-8.34-1.07c-8.72,0-14.49,4.96-14.49,11.85
			c0,5.08,2.38,9.47,9.28,14.86l2.88,2.26c5.21,4.08,6.15,6.96,6.15,10.03c0,3.32-2.76,7.15-8.4,7.15c-3.89,0-7.59-1.69-8.97-6.33
			c-0.31-1.07-0.56-2.38-0.56-3.2c0-0.5-0.06-1.07-0.63-1.07c-0.5,0-0.69,0.69-0.75,1.63c-0.06,1-0.31,4.77-0.31,8.22
			c0,1.38,0.19,1.69,1.19,2.13c2.7,1.19,5.52,1.63,9.16,1.63c3.32,0,6.84-0.56,9.97-2.57c4.51-2.95,5.89-7.28,5.89-10.91
			C563.99,928.19,561.29,923.86,553.7,918.15z"/>
		<path fill="#575756" d="M488.92,945.62c-0.94,0-2.32-0.13-3.2-0.25c-1.88-0.25-2.32-1.38-2.51-3.07
			c-0.25-2.7-0.25-7.65-0.25-13.73v-11.04c0-9.53,0-11.29,0.12-13.3c0.13-2.19,0.63-3.26,2.32-3.57c0.75-0.13,1.25-0.19,1.88-0.19
			s1-0.12,1-0.63c0-0.38-0.5-0.5-1.32-0.5c-2.38,0-6.08,0.19-7.65,0.19c-1.82,0-5.77-0.19-8.15-0.19c-1,0-1.5,0.13-1.5,0.5
			c0,0.5,0.38,0.63,1,0.63c0.75,0,1.57,0.06,2.26,0.25c1.38,0.31,2.01,1.38,2.13,3.51c0.13,2.01,0.13,3.76,0.13,13.3v11.04
			c0,6.08,0,11.04-0.31,13.67c-0.19,1.82-0.56,2.88-1.82,3.14c-0.56,0.12-1.32,0.25-2.26,0.25c-0.75,0-1,0.19-1,0.5
			c0,0.44,0.44,0.63,1.25,0.63c2.51,0,6.46-0.19,7.9-0.19c1.69,0,5.64,0.19,9.78,0.19c0.69,0,1.19-0.19,1.19-0.63
			C489.92,945.81,489.61,945.62,488.92,945.62z"/>
		<path fill="#575756" d="M302.79,898.46c-18.81,0-25.9,13.86-25.9,24.58c0,11.1,7.27,24.58,25.27,24.58
			c15.93,0,25.96-11.35,25.96-25.71S318.41,898.46,302.79,898.46z M304.8,944.49c-12.04,0-19.25-10.35-19.25-23.39
			c0-15.62,8.22-19.63,15.43-19.63c10.29,0,18.38,8.72,18.38,22.76C319.35,942.36,309.19,944.49,304.8,944.49z"/>
		<path fill="#575756" d="M650.28,898.9c-0.25,0-0.75,0.12-1.69,0.31c-0.94,0.12-2.32,0.31-4.33,0.31h-24.83
			c-2.07,0-4.45-0.12-6.27-0.31c-1.57-0.13-2.2-0.75-2.7-0.75c-0.38,0-0.56,0.38-0.75,1.19c-0.13,0.5-1.32,6.21-1.32,7.21
			c0,0.69,0.13,1,0.56,1c0.38,0,0.56-0.25,0.69-0.75c0.13-0.5,0.44-1.25,1.07-2.19c0.94-1.38,2.45-1.69,6.08-1.82l9.34-0.25v25.71
			c0,5.77,0,10.72-0.31,13.36c-0.19,1.82-0.56,3.2-1.82,3.45c-0.56,0.12-1.32,0.25-2.26,0.25c-0.75,0-1,0.19-1,0.5
			c0,0.44,0.44,0.63,1.25,0.63c2.51,0,6.46-0.19,7.9-0.19c1.76,0,5.71,0.19,9.85,0.19c0.69,0,1.19-0.19,1.19-0.63
			c0-0.31-0.31-0.5-1-0.5c-0.94,0-2.32-0.13-3.2-0.25c-1.88-0.25-2.26-1.63-2.45-3.39c-0.31-2.7-0.31-7.65-0.31-13.42v-25.71
			l7.9,0.19c5.58,0.13,7.27,1.88,7.4,3.51l0.06,0.69c0.06,0.94,0.19,1.25,0.69,1.25c0.38,0,0.5-0.38,0.56-1
			c0-1.63,0.19-5.96,0.19-7.28C650.78,899.28,650.72,898.9,650.28,898.9z"/>
		<path fill="#575756" d="M714.94,945.62c-0.94,0-2.32-0.13-3.2-0.25c-1.88-0.25-2.32-1.38-2.51-3.07
			c-0.25-2.7-0.25-7.65-0.25-13.73v-11.04c0-9.53,0-11.29,0.12-13.3c0.13-2.19,0.63-3.26,2.32-3.57c0.75-0.13,1.25-0.19,1.88-0.19
			s1-0.12,1-0.63c0-0.38-0.5-0.5-1.32-0.5c-2.38,0-6.08,0.19-7.65,0.19c-1.82,0-5.77-0.19-8.15-0.19c-1,0-1.5,0.13-1.5,0.5
			c0,0.5,0.38,0.63,1,0.63c0.75,0,1.57,0.06,2.26,0.25c1.38,0.31,2.01,1.38,2.13,3.51c0.13,2.01,0.13,3.76,0.13,13.3v11.04
			c0,6.08,0,11.04-0.31,13.67c-0.19,1.82-0.56,2.88-1.82,3.14c-0.56,0.12-1.32,0.25-2.26,0.25c-0.75,0-1,0.19-1,0.5
			c0,0.44,0.44,0.63,1.25,0.63c2.51,0,6.46-0.19,7.9-0.19c1.69,0,5.64,0.19,9.78,0.19c0.69,0,1.19-0.19,1.19-0.63
			C715.94,945.81,715.62,945.62,714.94,945.62z"/>
		<path fill="#575756" d="M422.51,923.23c-2.07,0-5.39,0.19-7.34,0.19c-1.88,0-5.83-0.19-9.09-0.19c-0.88,0-1.32,0.12-1.32,0.63
			c0,0.38,0.38,0.5,0.94,0.5c0.88,0,1.94,0.06,2.45,0.19c2.07,0.44,2.63,1.44,2.7,3.58c0.06,1.88,0.06,4.26,0.06,7.4v5.89
			c0,1.07-0.25,1.88-1.19,2.32c-1.5,0.69-3.7,0.69-5.33,0.69c-13.23,0-21.82-10.1-21.82-23.58c0-7.71,2.26-12.42,5.77-15.36
			c4.39-3.64,8.97-3.89,12.42-3.89c7.09,0,12.1,2.88,13.98,4.89c1.63,1.76,1.94,3.76,2.13,5.21c0.06,0.5,0.19,0.82,0.63,0.82
			c0.5,0,0.69-0.31,0.69-1.32c0-7.84,0.44-9.6,0.44-10.29c0-0.44-0.12-0.69-0.88-0.75c-1.44-0.06-3.64-0.44-4.95-0.69
			c-1.25-0.25-6.77-1-11.1-1c-5.27,0-10.85,0.44-16.87,4.08c-5.71,3.45-10.91,10.47-10.91,20.51c0,17.31,13.61,24.58,28.97,24.58
			c4.89,0,11.04-0.69,15.11-2.82c0.75-0.44,0.82-0.56,0.82-2.26v-6.9c0-3.14,0-5.64,0.06-7.53c0.06-2.2,0.69-3.26,2.38-3.58
			c0.75-0.12,1.19-0.19,1.69-0.19c0.44,0,0.82-0.13,0.82-0.5C423.76,923.36,423.32,923.23,422.51,923.23z"/>
		<path fill="#575756" d="M404.39,776.41l6.95,4.67c-5.01,14.92-21.64,61.4-25.29,72.8h23.24c2.39,0,3.99-1.14,4.79-3.42l7.52-21.76
			l-1.59-1.48c-1.03-0.91-2.05-2.05-3.3-2.96c-0.91-0.8-0.46-2.16,0.8-2.16h40.56c2.17,0,3.99-1.25,4.79-3.42l4.44-12.76h-37.82
			l1.82-5.13l-5.81-5.13c-0.8-0.8-0.34-2.28,0.91-2.28h55.48c2.16,0,4.21-1.25,5.01-3.42l5.58-15.83h-87.26
			C403.93,774.13,403.36,775.61,404.39,776.41z"/>
		<path fill="#575756" d="M260.17,774.13h-76.9c-1.37,0-1.82,1.48-0.8,2.28l6.83,4.67c-5.47,15.95-19.94,56.39-25.4,72.8h23.58
			c2.39,0,3.99-1.14,4.79-3.42l7.86-22.67h12.87l14.01,26.09h21.53c3.99,0,6.38-4.44,4.21-7.75l-11.62-18.34
			c1.82-0.34,11.51,0.57,19.37-5.47c9-6.95,9.68-12.19,15.72-30.08C279.88,781.54,272.02,774.13,260.17,774.13z M248.55,794.87
			c-0.34,1.03-0.8,2.05-1.14,3.3c-0.8,1.94-1.37,4.21-2.17,6.15c-0.34,1.02-0.46,1.94-0.8,2.51l-0.34,1.03
			c-0.34,1.03-1.03,1.48-2.28,1.48h-35.32l2.73-7.86c-0.8-0.8-1.48-1.25-2.28-2.05c-1.25-1.25-2.96-2.51-4.33-3.76
			c-0.8-0.8-0.34-2.28,0.91-2.28h43.86C248.67,793.38,249.01,793.84,248.55,794.87z"/>
		<path fill="#575756" d="M595.2,774.13c-1.25,0-1.71,1.48-0.68,2.28l6.95,4.78c-5.01,15.49-20.51,58.67-25.06,72.68h23.24
			c2.39,0,3.99-1.14,4.78-3.42l5.47-15.83h38.39l-7.06,19.25h23.58c2.39,0,3.99-1.14,4.79-3.42c4.56-14.01,22.1-65.85,25.75-76.33
			H595.2z M661.5,796.12l-7.63,22.33h-38.39l6.49-18.68l-4.56-4.1c-0.91-0.8-0.46-2.28,0.8-2.28h40.9
			C661.39,793.38,662.18,794.3,661.5,796.12z"/>
		<path fill="#575756" d="M899.13,774.13h-76.9c-1.37,0-1.82,1.48-0.8,2.28l6.83,4.67c-5.47,15.95-19.94,56.39-25.4,72.8h23.58
			c2.39,0,3.99-1.14,4.79-3.42l7.86-22.67h12.87l14.01,26.09h21.53c3.99,0,6.38-4.44,4.21-7.75l-11.62-18.34
			c1.82-0.34,11.51,0.57,19.37-5.47c9-6.95,9.68-12.19,15.72-30.08C918.84,781.54,910.98,774.13,899.13,774.13z M887.51,794.87
			c-0.34,1.03-0.8,2.05-1.14,3.3c-0.8,1.94-1.37,4.21-2.17,6.15c-0.34,1.02-0.46,1.94-0.8,2.51l-0.34,1.03
			c-0.34,1.03-1.03,1.48-2.28,1.48h-35.32l2.73-7.86c-0.8-0.8-1.48-1.25-2.28-2.05c-1.25-1.25-2.96-2.51-4.33-3.76
			c-0.8-0.8-0.34-2.28,0.91-2.28h43.86C887.62,793.38,887.97,793.84,887.51,794.87z"/>
		<path fill="#575756" d="M778.04,853.88c2.39,0,3.99-1.14,4.78-3.42c4.56-14.01,22.1-65.85,25.75-76.33H708.43
			c-1.25,0-1.71,1.48-0.68,2.28l6.95,4.78c-5.01,15.49-20.51,58.67-25.06,72.68h23.24c2.39,0,3.99-1.14,4.78-3.42l5.47-15.83h38.39
			l-7.06,19.25H778.04z M728.71,818.45l6.49-18.68l-4.56-4.1c-0.91-0.8-0.46-2.28,0.8-2.28h40.9c2.28,0,3.08,0.91,2.39,2.73
			l-7.63,22.33H728.71z"/>
		<path fill="#575756" d="M291.61,774.13c-1.25,0-1.71,1.48-0.68,2.28l6.95,4.78c-5.01,15.49-20.51,58.67-25.06,72.68h23.24
			c2.39,0,3.99-1.14,4.78-3.42l5.47-15.83h38.39l-7.06,19.25h23.58c2.39,0,3.99-1.14,4.79-3.42c4.56-14.01,22.1-65.85,25.75-76.33
			H291.61z M357.91,796.12l-7.63,22.33h-38.39l6.49-18.68l-4.56-4.1c-0.91-0.8-0.46-2.28,0.8-2.28h40.9
			C357.8,793.38,358.6,794.3,357.91,796.12z"/>
		<path fill="#575756" d="M539.27,850.46l16.75-48.42l-6.95-6.38c-0.91-0.8-0.46-2.28,0.8-2.28h28.48c2.39,0,3.99-1.14,4.78-3.42
			c1.48-4.44,4.33-12.08,5.58-15.83h-91.82c-1.25,0-1.82,1.59-0.57,2.39l7.75,4.56c-0.34,1.25-4.79,11.51-5.01,12.3h33.27
			l-21.08,60.49h23.24C536.87,853.88,538.47,852.74,539.27,850.46z"/>
	</g>
	<g>
		<path fill="#FF0000" d="M397.91,260.2c73.99-39.65,157.3-42.87,227.83-15.76c-87.75-57.42-196.29-61.61-283.83,4.16
			c-68.6,51.55-98.66,136.66-88.23,222.87C262.29,386.28,313.87,305.23,397.91,260.2z"/>
		<path fill="#FF0000" d="M766.7,332.11c18.45,62.04,15.96,129.67-7.42,189.97c-46.2,121.16-170.83,202.2-301.01,185.98
			c-32.01-3.82-62.51-13.44-92.5-25.85c8.89,6.27,18.29,11.9,28.08,16.79c73.15,35.53,159.59,40.22,236.93,12.77
			c132.25-46.4,212.7-179.24,195.18-317.98c-12.4-96.32-73.35-181.36-158.56-226.93c-2.54-1.33-8.51-4.22-11.17-5.64
			c-9.75-4.79-20.42-9.12-30.57-12.92c-25.75-9.16-52.97-15.69-80.23-15.92C652.89,155.58,735.2,226.51,766.7,332.11z"/>
		<path fill="#FF0000" d="M892.58,876.34l-23.51-0.61c-232.56-5.45-472.68-5.6-705.17,1.41c185.36,1.5,566.77,1.5,752.18,0
			L892.58,876.34z"/>
	</g>
</g>
</svg>
